HIERARCHY
ROOT root
{
	OFFSET	0	13.1	24.9
	CHANNELS 6  Xposition Yposition Zposition Xrotation Yrotation Zrotation
	JOINT spine_1
	{
		OFFSET	0	9.99999	0
		CHANNELS 3  Xrotation Yrotation Zrotation
		JOINT spine_2
		{
			OFFSET	0	112	-10
			CHANNELS 3  Xrotation Yrotation Zrotation
			JOINT spine_3
			{
				OFFSET	0	206.5	19.3
				CHANNELS 3  Xrotation Yrotation Zrotation
				JOINT spine_4
				{
					OFFSET	0	110.4	14.6
					CHANNELS 3  Xrotation Yrotation Zrotation
					JOINT neck_1
					{
						OFFSET	0	71.8	-50.3
						CHANNELS 3  Xrotation Yrotation Zrotation
						JOINT neck_2
						{
							OFFSET	0	86.2	-25.8
							CHANNELS 3  Xrotation Yrotation Zrotation
							JOINT head_ee
							{
								OFFSET	0	179.8	-8.7
								CHANNELS 3  Xrotation Yrotation Zrotation
								End Site
								{
									OFFSET	1	0	0
								}
							}
						}
					}
					JOINT left_clavicle
					{
						OFFSET	-43.2	22.4	-70.8
						CHANNELS 3  Xrotation Yrotation Zrotation
						JOINT left_shoulder
						{
							OFFSET	-93.9	-5.79999	48.7
							CHANNELS 3  Xrotation Yrotation Zrotation
							JOINT left_elbow
							{
								OFFSET	-291.4	-30.8	15.2
								CHANNELS 3  Xrotation Yrotation Zrotation
								JOINT left_lowarm_twist
								{
									OFFSET	-110.7	-3.89999	13.6
									CHANNELS 3  Xrotation Yrotation Zrotation
									JOINT left_hand
									{
										OFFSET	-110.7	-3.89999	13.6
										CHANNELS 3  Xrotation Yrotation Zrotation
										JOINT left_ee
										{
											OFFSET	-80.8	-5.10001	12.1
											CHANNELS 3  Xrotation Yrotation Zrotation
											End Site
											{
												OFFSET	1	0	0
											}
										}
									}
								}
							}
						}
					}
					JOINT right_clavicle
					{
						OFFSET	43.2	22.4	-70.8
						CHANNELS 3  Xrotation Yrotation Zrotation
						JOINT right_shoulder
						{
							OFFSET	93.9	-5.79999	48.7
							CHANNELS 3  Xrotation Yrotation Zrotation
							JOINT right_elbow
							{
								OFFSET	291.4	-30.8	15.2
								CHANNELS 3  Xrotation Yrotation Zrotation
								JOINT right_lowarm_twist
								{
									OFFSET	110.7	-3.89999	13.6
									CHANNELS 3  Xrotation Yrotation Zrotation
									JOINT right_hand
									{
										OFFSET	110.7	-3.89999	13.6
										CHANNELS 3  Xrotation Yrotation Zrotation
										JOINT right_ee
										{
											OFFSET	80.8	-5.10001	12.1
											CHANNELS 3  Xrotation Yrotation Zrotation
											End Site
											{
												OFFSET	1	0	0
											}
										}
									}
								}
							}
						}
					}
				}
			}
		}
	}
	JOINT left_hip
	{
		OFFSET	-82.8	-127.5	0.300001
		CHANNELS 3  Xrotation Yrotation Zrotation
		JOINT left_knee
		{
			OFFSET	-28.2	-396.7	2.2
			CHANNELS 3  Xrotation Yrotation Zrotation
			JOINT left_ankle
			{
				OFFSET	-11.7	-411.3	35.4
				CHANNELS 3  Xrotation Yrotation Zrotation
				JOINT left_toes
				{
					OFFSET	0	-60	-88.6
					CHANNELS 3  Xrotation Yrotation Zrotation
					JOINT left_foot_ee
					{
						OFFSET	-22.5	-16.5	-42.2
						CHANNELS 3  Xrotation Yrotation Zrotation
						End Site
						{
							OFFSET	1	0	0
						}
					}
				}
			}
		}
	}
	JOINT right_hip
	{
		OFFSET	82.8	-127.5	0.300001
		CHANNELS 3  Xrotation Yrotation Zrotation
		JOINT right_knee
		{
			OFFSET	28.2	-396.7	2.2
			CHANNELS 3  Xrotation Yrotation Zrotation
			JOINT right_ankle
			{
				OFFSET	11.7	-411.3	35.4
				CHANNELS 3  Xrotation Yrotation Zrotation
				JOINT right_toes
				{
					OFFSET	0	-60	-88.6
					CHANNELS 3  Xrotation Yrotation Zrotation
					JOINT right_foot_ee
					{
						OFFSET	22.5	-16.5	-42.2
						CHANNELS 3  Xrotation Yrotation Zrotation
						End Site
						{
							OFFSET	1	0	0
						}
					}
				}
			}
		}
	}
}
MOTION
Frames: 16
Frame Time: 0.02
3498.08722391 680.197 -1507.3175638 10.970149493 50.9438768493 -15.2225790035 -1.95161 1.08686 2.45709 -1.94873 0.928359 2.52122 -1.90331 0.289722 2.67095 -1.91256 0.70777 2.59176 -24.2754 11.8125 9.59373 -24.6847 18.6631 14.7681 -0.0 0.0 -0.0 1.62415 16.1314 4.44865 -20.952 -12.7389 65.431 1.63799 -39.0532 0.580934 -73.4842 -6.99116 5.31991 -4.51976 21.5187 -18.1831 -0.0 0.0 -0.0 11.7278 28.5855 -22.4489 -12.3336 32.3471 -57.5805 0.223467 6.31702 -0.0123315 25.9228 -0.174272 3.27872 2.86139 -30.1111 -28.1631 0.0 0.0 0.0 17.0775 21.5574 -11.2736 -58.4085 -2.0306 8.34777 26.1613 -3.58444 -3.51864 -40.2272 0.0 0.0 -0.0 0.0 -0.0 -10.2374 40.6113 3.29536 -28.9776 -0.0818681 -4.39908 40.3933 -2.38298 4.89641 3.37594 -0.0 -0.0 0.0 0.0 0.0 
3499.1967093 680.197 -1509.80276089 10.551721096 49.0980100577 -14.6765995183 -1.95161 1.08686 2.45709 -1.94873 0.928359 2.52122 -1.90331 0.289722 2.67095 -1.91256 0.70777 2.59176 -24.2754 11.8125 9.59373 -24.6847 18.6631 14.7681 -0.0 0.0 -0.0 1.62415 16.1314 4.44865 -20.952 -12.7389 65.431 1.63799 -39.0532 0.580934 -73.4842 -6.99116 5.31991 -4.51976 21.5187 -18.1831 -0.0 0.0 -0.0 11.7278 28.5855 -22.4489 -12.3336 32.3471 -57.5805 0.223467 6.31702 -0.0123315 25.9228 -0.174272 3.27872 2.86139 -30.1111 -28.1631 0.0 0.0 0.0 17.0775 21.5574 -11.2736 -58.4085 -2.0306 8.34777 26.1613 -3.58444 -3.51864 -40.2272 0.0 0.0 -0.0 0.0 -0.0 -10.2374 40.6113 3.29536 -28.9776 -0.0818681 -4.39908 40.3933 -2.38298 4.89641 3.37594 -0.0 -0.0 0.0 0.0 0.0 
3488.28419586 671.777 -1516.29146751 15.625586593 57.5506688132 -19.5948320825 -2.8967 1.06236 2.95354 -2.89227 0.872357 3.01508 -2.83871 0.0643517 3.13798 -2.85201 0.55889 3.08852 -23.3174 10.544 5.34442 -23.831 17.949 10.0636 -0.0 0.0 -0.0 0.556764 14.2379 2.57939 -18.9547 -17.3053 65.4676 1.40988 -34.9289 0.443592 -73.2198 -6.95737 5.31953 -4.63194 21.4356 -18.9403 -0.0 0.0 -0.0 10.4209 28.6554 -19.5003 -8.3478 31.803 -58.6244 0.499237 13.8911 -0.0608176 28.0986 -0.121196 3.55158 3.74139 -30.5771 -33.8905 0.0 0.0 0.0 23.3066 21.8296 -14.783 -60.7091 -2.27704 8.60311 23.8439 1.9571 -3.20685 -39.6063 0.0 0.0 -0.0 0.0 -0.0 -8.65804 37.039 -0.228824 -34.8682 0.172965 -5.26668 40.2712 -0.235214 4.89748 2.67715 -0.0 -0.0 0.0 0.0 0.0 
3488.02559836 671.777 -1515.7512104 15.77934512 57.8961059722 -19.7766906879 -2.8967 1.06236 2.95354 -2.89227 0.872357 3.01508 -2.83871 0.0643517 3.13798 -2.85201 0.55889 3.08852 -23.3174 10.544 5.34442 -23.831 17.949 10.0636 -0.0 0.0 -0.0 0.556764 14.2379 2.57939 -18.9547 -17.3053 65.4676 1.40988 -34.9289 0.443592 -73.2198 -6.95737 5.31953 -4.63194 21.4356 -18.9403 -0.0 0.0 -0.0 10.4209 28.6554 -19.5003 -8.3478 31.803 -58.6244 0.499237 13.8911 -0.0608176 28.0986 -0.121196 3.55158 3.74139 -30.5771 -33.8905 0.0 0.0 0.0 23.3066 21.8296 -14.783 -60.7091 -2.27704 8.60311 23.8439 1.9571 -3.20685 -39.6063 0.0 0.0 -0.0 0.0 -0.0 -8.65804 37.039 -0.228824 -34.8682 0.172965 -5.26668 40.2712 -0.235214 4.89748 2.67715 -0.0 -0.0 0.0 0.0 0.0 
3468.75766088 661.037 -1509.72834162 24.2002637718 65.1883260282 -27.6604062281 -3.76826 0.878359 3.22042 -3.76274 0.671768 3.26972 -3.71445 -0.246516 3.32883 -3.7298 0.282006 3.32602 -21.8662 8.60705 -0.0879426 -22.3381 16.6442 3.88069 -0.0 0.0 -0.0 -0.392434 11.6241 0.712818 -16.4699 -21.2457 68.7006 1.12569 -29.1447 0.292649 -71.4835 -6.73547 5.31311 -4.49653 21.9667 -17.7376 -0.0 0.0 -0.0 9.46593 29.8083 -17.2319 -5.714 32.0067 -56.9003 0.813947 21.9594 -0.157919 30.7109 -0.0438373 3.87625 4.26085 -28.6786 -37.3459 0.0 0.0 0.0 29.9962 18.9943 -16.9064 -58.1519 -2.00376 8.31869 25.1832 6.77896 -3.35192 -39.3193 0.0 0.0 -0.0 0.0 -0.0 -9.60848 34.9115 -2.0846 -38.6981 0.386028 -5.81517 40.6888 -1.11517 4.92741 2.0259 -0.0 -0.0 0.0 0.0 0.0 
3468.26271575 661.037 -1508.19707075 24.9586501283 65.9416636266 -28.493382695 -3.76826 0.878359 3.22042 -3.76274 0.671768 3.26972 -3.71445 -0.246516 3.32883 -3.7298 0.282006 3.32602 -21.8662 8.60705 -0.0879426 -22.3381 16.6442 3.88069 -0.0 0.0 -0.0 -0.392434 11.6241 0.712818 -16.4699 -21.2457 68.7006 1.12569 -29.1447 0.292649 -71.4835 -6.73547 5.31311 -4.49653 21.9667 -17.7376 -0.0 0.0 -0.0 9.46593 29.8083 -17.2319 -5.714 32.0067 -56.9003 0.813947 21.9594 -0.157919 30.7109 -0.0438373 3.87625 4.26085 -28.6786 -37.3459 0.0 0.0 0.0 29.9962 18.9943 -16.9064 -58.1519 -2.00376 8.31869 25.1832 6.77896 -3.35192 -39.3193 0.0 0.0 -0.0 0.0 -0.0 -9.60848 34.9115 -2.0846 -38.6981 0.386028 -5.81517 40.6888 -1.11517 4.92741 2.0259 -0.0 -0.0 0.0 0.0 0.0 
3456.84155627 661.479 -1504.5488025 29.8827813516 69.6549503598 -33.3114526163 -4.08861 0.819398 3.25032 -4.08294 0.611027 3.29581 -4.0373 -0.331004 3.33554 -4.05277 0.199633 3.34597 -22.5761 8.39009 -2.29008 -23.0988 17.2404 1.85771 -0.0 0.0 -0.0 -0.821404 11.7262 0.0033358 -15.8476 -22.6449 69.5027 1.04469 -27.3613 0.254301 -70.8668 -6.65668 5.3092 -4.5099 21.913 -17.8564 -0.0 0.0 -0.0 9.12004 30.3042 -16.4046 -4.98322 32.0047 -55.4992 0.946966 25.1308 -0.211077 31.2725 -0.0252739 3.94559 4.56671 -28.1782 -39.5718 0.0 0.0 0.0 32.1254 19.4731 -16.9349 -56.5408 -1.83827 8.13344 26.398 9.30355 -3.49516 -39.1641 0.0 0.0 -0.0 0.0 -0.0 -9.39109 34.3021 -3.38575 -39.7724 0.45235 -5.9664 40.4408 -1.19236 4.90596 1.59413 -0.0 -0.0 0.0 0.0 0.0 
3447.8293682 659.569 -1504.02124369 34.294616208 71.9202149264 -37.4490188283 -4.10338 0.78011 3.27545 -4.09759 0.570221 3.31839 -4.05402 -0.377537 3.34576 -4.06961 0.155293 3.36339 -22.3314 7.71597 -4.18661 -22.7874 16.8355 -0.263786 -0.0 0.0 -0.0 -1.03992 11.1925 -0.440456 -15.8712 -23.5605 70.3382 0.948438 -25.1651 0.211702 -70.2947 -6.58364 5.30481 -4.38929 21.7125 -17.2446 -0.0 0.0 -0.0 9.19001 29.7428 -16.6294 -3.44354 32.6794 -55.4002 1.09356 28.4444 -0.277171 31.9558 -0.00177585 4.02969 4.71287 -27.2206 -40.6289 0.0 0.0 0.0 33.7926 19.3533 -16.6002 -54.0308 -1.59105 7.83586 27.412 11.3665 -3.61864 -39.0953 0.0 0.0 -0.0 0.0 -0.0 -9.73403 33.7859 -4.17517 -40.3979 0.492276 -6.05389 40.0809 -1.61318 4.87301 0.91504 -0.0 -0.0 0.0 0.0 0.0 
3434.44803639 658.889 -1499.6716721 38.5371933476 74.539583512 -41.7885240759 -4.04286 0.767927 3.30956 -4.03694 0.555896 3.35165 -3.99382 -0.397055 3.37413 -4.00968 0.140492 3.39448 -21.4316 7.37007 -4.74102 -21.8237 16.5 -1.06885 -0.0 0.0 -0.0 -1.01276 10.7309 -0.45936 -15.4326 -24.3396 71.2424 0.731172 -19.9105 0.128338 -70.3296 -6.5881 5.3051 -4.21811 21.5792 -16.2774 -0.0 0.0 -0.0 9.19261 28.6141 -16.7717 -1.95782 32.1516 -55.0134 1.44532 35.5993 -0.464054 33.1913 0.0432584 4.18104 4.81057 -26.6683 -41.3575 0.0 0.0 0.0 35.9696 19.2403 -16.6374 -47.3779 -1.00155 6.99845 21.7184 12.9791 -2.95765 -40.1513 0.0 0.0 -0.0 0.0 -0.0 -10.3582 33.462 -4.37211 -39.4379 0.431393 -5.91944 40.7038 -2.96693 4.92087 0.444969 -0.0 -0.0 0.0 0.0 0.0 
3424.17948631 657.42 -1493.49532758 39.6229539739 75.9634198696 -42.0421066049 -4.05701 1.01966 3.32543 -4.05122 0.806109 3.38349 -3.99218 -0.164996 3.47417 -4.00882 0.38542 3.45668 -19.7938 6.34299 -6.60206 -20.0289 15.5966 -3.47965 -0.0 0.0 -0.0 -0.527394 9.37708 0.194587 -14.752 -24.9249 71.6525 0.473533 -13.2016 0.0547968 -69.874 -6.52995 5.30111 -3.8721 21.5987 -14.1528 -0.0 0.0 -0.0 9.17243 28.9778 -16.6837 0.0594743 26.0889 -55.6944 1.76882 41.2217 -0.665283 35.618 0.141175 4.47536 4.90381 -22.166 -41.6289 0.0 0.0 0.0 37.7089 19.2278 -16.5355 -39.6161 -0.442527 5.94448 15.5062 12.6057 -2.16743 -40.1801 0.0 0.0 -0.0 0.0 -0.0 -11.4652 32.9178 -4.45948 -36.9761 0.285679 -5.57028 40.2804 -4.13677 4.88244 0.0583221 -0.0 -0.0 0.0 0.0 0.0 
3423.95688338 657.42 -1491.61786575 41.5226188368 76.5069394562 -43.9979092236 -4.05701 1.01966 3.32543 -4.05122 0.806109 3.38349 -3.99218 -0.164996 3.47417 -4.00882 0.38542 3.45668 -19.7938 6.34299 -6.60206 -20.0289 15.5966 -3.47965 -0.0 0.0 -0.0 -0.527394 9.37708 0.194587 -14.752 -24.9249 71.6525 0.473533 -13.2016 0.0547968 -69.874 -6.52995 5.30111 -3.8721 21.5987 -14.1528 -0.0 0.0 -0.0 9.17243 28.9778 -16.6837 0.0594743 26.0889 -55.6944 1.76882 41.2217 -0.665283 35.618 0.141175 4.47536 4.90381 -22.166 -41.6289 0.0 0.0 0.0 37.7089 19.2278 -16.5355 -39.6161 -0.442527 5.94448 15.5062 12.6057 -2.16743 -40.1801 0.0 0.0 -0.0 0.0 -0.0 -11.4652 32.9178 -4.45948 -36.9761 0.285679 -5.57028 40.2804 -4.13677 4.88244 0.0583221 -0.0 -0.0 0.0 0.0 0.0 
3407.89729049 658.753 -1488.15815014 43.7988338038 77.7886438054 -45.95971155 -4.09868 1.07298 3.31825 -4.09297 0.859784 3.37971 -4.03064 -0.114624 3.48535 -4.04732 0.436925 3.45979 -18.9156 5.85873 -7.26747 -19.0775 15.1061 -4.41587 -0.0 0.0 -0.0 -0.925942 8.89114 -0.566179 -14.1913 -25.6041 73.2104 0.351297 -9.87207 0.0303395 -69.5278 -6.48577 5.29777 -3.77034 21.7085 -13.4693 -0.0 0.0 -0.0 9.00954 28.3197 -16.4008 -0.00390442 25.1675 -55.1481 1.99993 44.7275 -0.822902 34.7651 0.105337 4.37238 5.13283 -22.0614 -43.5485 0.0 0.0 0.0 38.788 19.1691 -16.3737 -36.4794 -0.258114 5.49912 13.9657 14.5417 -1.97071 -39.6961 0.0 0.0 -0.0 0.0 -0.0 -11.7708 32.5605 -4.65905 -36.1691 0.241207 -5.45454 40.8032 -3.68653 4.92763 0.696451 -0.0 -0.0 0.0 0.0 0.0 
3393.44585369 658.424 -1480.25126494 42.6466207986 78.6989486642 -44.3064109624 -3.95264 1.10319 3.1215 -3.94767 0.902434 3.18529 -3.88724 -0.011152 3.31051 -3.90216 0.511537 3.27081 -17.0138 5.47339 -7.98553 -17.0862 14.9766 -5.47764 -0.0 0.0 -0.0 -0.416075 9.22722 0.369125 -15.7916 -25.4476 73.4141 0.291481 -8.2164 0.0209356 -69.6821 -6.50546 5.29929 -3.52245 20.8401 -12.4918 -0.0 0.0 -0.0 8.96983 28.0785 -16.3408 0.741368 21.5913 -55.3958 2.24667 48.0529 -1.00163 34.6135 0.0991302 4.35403 4.98157 -19.4558 -41.8388 0.0 0.0 0.0 39.5186 19.1826 -16.1946 -32.245 -0.0484482 4.88351 8.91454 14.8873 -1.28115 -40.1372 0.0 0.0 -0.0 0.0 -0.0 -12.6506 32.6757 -4.47516 -35.1539 0.187586 -5.30807 41.1045 -4.16547 4.95237 1.67898 -0.0 -0.0 0.0 0.0 0.0 
3393.39879747 658.424 -1478.39745628 44.7146453029 79.1234138586 -46.4137563423 -3.95264 1.10319 3.1215 -3.94767 0.902434 3.18529 -3.88724 -0.011152 3.31051 -3.90216 0.511537 3.27081 -17.0138 5.47339 -7.98553 -17.0862 14.9766 -5.47764 -0.0 0.0 -0.0 -0.416075 9.22722 0.369125 -15.7916 -25.4476 73.4141 0.291481 -8.2164 0.0209356 -69.6821 -6.50546 5.29929 -3.52245 20.8401 -12.4918 -0.0 0.0 -0.0 8.96983 28.0785 -16.3408 0.741368 21.5913 -55.3958 2.24667 48.0529 -1.00163 34.6135 0.0991302 4.35403 4.98157 -19.4558 -41.8388 0.0 0.0 0.0 39.5186 19.1826 -16.1946 -32.245 -0.0484482 4.88351 8.91454 14.8873 -1.28115 -40.1372 0.0 0.0 -0.0 0.0 -0.0 -12.6506 32.6757 -4.47516 -35.1539 0.187586 -5.30807 41.1045 -4.16547 4.95237 1.67898 -0.0 -0.0 0.0 0.0 0.0 
3378.59239318 659.2 -1476.25591988 40.6710866196 79.2611143341 -41.6057548667 -3.87102 1.13105 3.13477 -3.86603 0.929391 3.2003 -3.80385 0.0155177 3.33235 -3.81894 0.541316 3.28817 -18.8236 4.94527 -8.278 -18.8908 13.8955 -5.74965 -0.0 0.0 -0.0 -0.160302 8.71815 0.752913 -16.6096 -25.4034 73.6743 0.241588 -6.8246 0.0144051 -69.5035 -6.48267 5.29752 -3.18279 20.2857 -10.7569 -0.0 0.0 -0.0 9.26771 27.3052 -17.089 0.614864 21.3284 -54.7978 2.45897 50.6078 -1.16269 35.897 0.153231 4.50893 5.11557 -16.5908 -42.4043 0.0 0.0 0.0 40.28 18.2418 -17.0738 -30.0363 0.0426748 4.55684 6.93782 13.2661 -1.00023 -39.8149 0.0 0.0 -0.0 0.0 -0.0 -12.6004 32.096 -4.79235 -34.4571 0.152293 -5.20701 41.0086 -2.92102 4.94671 0.688961 -0.0 -0.0 0.0 0.0 0.0 
3329.71020662 662.667 -1462.37816413 24.5098049018 79.7462589985 -22.7788957718 -3.31871 1.22046 2.92153 -3.31456 1.03216 2.99318 -3.25222 0.201823 3.15956 -3.26547 0.698045 3.08816 -19.0735 4.46317 -8.97846 -19.0905 13.3034 -6.57826 -0.0 0.0 -0.0 -0.301313 8.69114 0.50235 -18.5593 -25.4186 74.6928 0.227633 -6.43381 0.0127941 -68.8466 -6.39891 5.29041 -2.55898 18.753 -7.81299 -0.0 0.0 -0.0 9.91351 28.9456 -18.3327 3.30419 16.9507 -54.1769 2.96576 55.7471 -1.56879 38.3684 0.26713 4.80365 5.06165 -12.1859 -40.7886 0.0 0.0 0.0 41.0473 16.7161 -17.5545 -22.7493 0.252863 3.45902 -0.135727 13.8225 0.0199576 -40.2808 0.0 0.0 -0.0 0.0 -0.0 -12.9262 31.6965 -5.545 -30.6774 -0.0175236 -4.65201 40.2723 -2.5845 4.88534 0.1523 -0.0 -0.0 0.0 0.0 0.0 
